# xmcd CD database file
#
# Track frame offsets:
#	182
#	21330
#	33005
#	51215
#	69142
#	93247
#	111942
#	129310
#	144720
#	167002
#
# Disc length: 2397 seconds
#
# Revision: 0
# Processed by: cddbd v1.4PL0 Copyright (c) Steve Scherf et al.
# Submitted via: CDex 1.50beta10
#
DISCID=7d095b0a
DTITLE=Johnny Hodges - 3 shades of blue
DYEAR=1970
DGENRE=Jazz
TTITLE0=Empty ballroom blues
TTITLE1=Duke's place
TTITLE2=Echoes of Harlem
TTITLE3=Disillusion blues
TTITLE4=Yearning
TTITLE5=Welcome to New York
TTITLE6=Black, brown and beautiful
TTITLE7=Rockin' in rythm
TTITLE8=Creole love call
TTITLE9=It's glory
EXTD=YEAR: 1970
EXTT0=
EXTT1=
EXTT2=
EXTT3=
EXTT4=
EXTT5=
EXTT6=
EXTT7=
EXTT8=
EXTT9=
PLAYORDER=
